<svg xmlns="http://www.w3.org/2000/svg" xmlns:xlink="http://www.w3.org/1999/xlink" width="80" height="80" viewBox="0 0 80 80">
  <defs>
    <clipPath id="clip-path">
      <rect id="長方形_224" data-name="長方形 224" width="38.4" height="27.2" fill="#fff"/>
    </clipPath>
  </defs>
  <g id="environment_icon_device" transform="translate(-715 -1491)">
    <circle id="楕円形_6" data-name="楕円形 6" cx="40" cy="40" r="40" transform="translate(715 1491)" fill="#1f2020"/>
    <g id="グループ_712" data-name="グループ 712" transform="translate(735.8 1517)">
      <g id="グループ_711" data-name="グループ 711" clip-path="url(#clip-path)">
        <path id="パス_259" data-name="パス 259" d="M2.28,27.2a2.141,2.141,0,0,1-1.62-.7A2.387,2.387,0,0,1,0,24.8H5.64a2.3,2.3,0,0,1-1.68-.72,2.3,2.3,0,0,1-.72-1.68V2.4A2.3,2.3,0,0,1,3.96.72,2.3,2.3,0,0,1,5.64,0H32.76a2.3,2.3,0,0,1,1.68.72,2.3,2.3,0,0,1,.72,1.68v20a2.461,2.461,0,0,1-2.4,2.4H38.4A2.39,2.39,0,0,1,36,27.2Zm30.48-4.8h0V2.4H5.64v20ZM19.2,26.32a1.366,1.366,0,1,0-.96-.4,1.309,1.309,0,0,0,.96.4M5.64,22.4h0v0" fill="#fff"/>
      </g>
    </g>
  </g>
</svg>
