<svg xmlns="http://www.w3.org/2000/svg" xmlns:xlink="http://www.w3.org/1999/xlink" width="80" height="80" viewBox="0 0 80 80">
  <defs>
    <clipPath id="clip-path">
      <rect id="長方形_246" data-name="長方形 246" width="33.6" height="33.6" fill="#fff"/>
    </clipPath>
  </defs>
  <g id="environment_icon_spouse" transform="translate(-183 -2073)">
    <circle id="楕円形_13" data-name="楕円形 13" cx="40" cy="40" r="40" transform="translate(183 2073)" fill="#1f2020"/>
    <g id="グループ_755" data-name="グループ 755" transform="translate(206.2 2097)" clip-path="url(#clip-path)">
      <path id="パス_290" data-name="パス 290" d="M16.926,27.762a17.806,17.806,0,0,0,6.783-1.344A17.049,17.049,0,0,0,29.4,22.68L27.51,21a10.22,10.22,0,0,1-2.1,1.554l-1.722-3.192V15.036H25.7V13.608H15.582L12.348,8.064H7.014l1.47,1.05-2.9,3.066,1.428,1.47,2.9-2.016v7.728l-1.68,3.192a10.336,10.336,0,0,1-1.155-.735A8.28,8.28,0,0,1,6.09,21L4.2,22.68A16.822,16.822,0,0,0,10,26.418a18.707,18.707,0,0,0,6.93,1.344m0-2.478a17.56,17.56,0,0,1-3.486-.357A12.493,12.493,0,0,1,9.912,23.6l1.932-3.192A13.732,13.732,0,0,0,16.8,21.42a13.732,13.732,0,0,0,4.956-1.008L23.688,23.6a14.222,14.222,0,0,1-3.423,1.3,14.988,14.988,0,0,1-3.339.378M2.52,33.6a2.418,2.418,0,0,1-1.764-.756A2.418,2.418,0,0,1,0,31.08V2.52A2.418,2.418,0,0,1,.756.756,2.418,2.418,0,0,1,2.52,0H31.08a2.418,2.418,0,0,1,1.764.756A2.418,2.418,0,0,1,33.6,2.52V31.08a2.584,2.584,0,0,1-2.52,2.52Zm0-2.52H31.08V2.52H2.52Zm0,0h0v0Z" fill="#fff"/>
    </g>
  </g>
</svg>
