<svg xmlns="http://www.w3.org/2000/svg" xmlns:xlink="http://www.w3.org/1999/xlink" width="80" height="80" viewBox="0 0 80 80">
  <defs>
    <clipPath id="clip-path">
      <rect id="長方形_222" data-name="長方形 222" width="32" height="32" fill="#fff"/>
    </clipPath>
  </defs>
  <g id="environment_icon_fullflex" transform="translate(-183 -949)">
    <circle id="楕円形_1" data-name="楕円形 1" cx="40" cy="40" r="40" transform="translate(183 949)" fill="#1f2020"/>
    <g id="グループ_687" data-name="グループ 687" transform="translate(207 973)">
      <g id="グループ_686" data-name="グループ 686" transform="translate(0 0)" clip-path="url(#clip-path)">
        <path id="パス_255" data-name="パス 255" d="M2.3,26.891h0v0Zm0,2.3A2.211,2.211,0,0,1,.691,28.5,2.211,2.211,0,0,1,0,26.891V7.952A2.211,2.211,0,0,1,.691,6.339,2.211,2.211,0,0,1,2.3,5.647H9.6V2.3A2.233,2.233,0,0,1,10.3.711,2.182,2.182,0,0,1,11.909,0h6.915a2.182,2.182,0,0,1,1.613.711A2.233,2.233,0,0,1,21.128,2.3V5.647h7.3a2.211,2.211,0,0,1,1.613.691,2.211,2.211,0,0,1,.691,1.613v9.143a12.128,12.128,0,0,0-1.095-.768,11.9,11.9,0,0,0-1.21-.653V7.952H2.3V26.891H15.136a9.2,9.2,0,0,0,.384,1.191,8.9,8.9,0,0,0,.538,1.114Zm9.6-23.549h6.915V2.3H11.909ZM24.586,32a7.477,7.477,0,0,1-7.414-7.414,7.477,7.477,0,0,1,7.414-7.414A7.477,7.477,0,0,1,32,24.586,7.477,7.477,0,0,1,24.586,32m2.843-3.534,1.037-1.037-3.227-2.92V19.745H23.625V24.97Z" transform="translate(0 0)" fill="#fff"/>
      </g>
    </g>
  </g>
</svg>
