<svg xmlns="http://www.w3.org/2000/svg" xmlns:xlink="http://www.w3.org/1999/xlink" width="80" height="80" viewBox="0 0 80 80">
  <defs>
    <clipPath id="clip-path">
      <rect id="長方形_230" data-name="長方形 230" width="35.2" height="27.2" fill="#fff"/>
    </clipPath>
  </defs>
  <g id="environment_icon_book" transform="translate(-183 -1491)">
    <circle id="楕円形_5" data-name="楕円形 5" cx="40" cy="40" r="40" transform="translate(183 1491)" fill="#1f2020"/>
    <g id="グループ_724" data-name="グループ 724" transform="translate(205.4 1517)">
      <g id="グループ_723" data-name="グループ 723" clip-path="url(#clip-path)">
        <path id="パス_266" data-name="パス 266" d="M32,.8A18.887,18.887,0,0,0,26.4,0c-3.12,0-6.48.64-8.8,2.4C15.28.64,11.92,0,8.8,0S2.32.64,0,2.4V25.84a.86.86,0,0,0,.8.8c.16,0,.24-.08.4-.08A19.529,19.529,0,0,1,8.8,24.8c3.12,0,6.48.64,8.8,2.4a19.272,19.272,0,0,1,8.8-2.4A16.285,16.285,0,0,1,34,26.48a.721.721,0,0,0,.4.08.86.86,0,0,0,.8-.8V2.4A10.913,10.913,0,0,0,32,.8m0,21.6a18.593,18.593,0,0,0-5.6-.8A19.272,19.272,0,0,0,17.6,24V5.6a19.272,19.272,0,0,1,8.8-2.4A18.593,18.593,0,0,1,32,4Z" transform="translate(0 0)" fill="#fff"/>
        <path id="パス_267" data-name="パス 267" d="M19.2,6.9a18.711,18.711,0,0,1,4,.416V4.884a21.605,21.605,0,0,0-4-.384A18.411,18.411,0,0,0,12,5.828V8.484A14.853,14.853,0,0,1,19.2,6.9" transform="translate(7.2 2.7)" fill="#fff"/>
        <path id="パス_268" data-name="パス 268" d="M12,8.488v2.656A14.854,14.854,0,0,1,19.2,9.56a18.711,18.711,0,0,1,4,.416V7.544a21.605,21.605,0,0,0-4-.384A18.706,18.706,0,0,0,12,8.488" transform="translate(7.2 4.296)" fill="#fff"/>
        <path id="パス_269" data-name="パス 269" d="M19.2,9.83A18.411,18.411,0,0,0,12,11.158v2.656a14.853,14.853,0,0,1,7.2-1.584,18.711,18.711,0,0,1,4,.416V10.214a20.315,20.315,0,0,0-4-.384" transform="translate(7.2 5.898)" fill="#fff"/>
      </g>
    </g>
  </g>
</svg>
