<svg xmlns="http://www.w3.org/2000/svg" xmlns:xlink="http://www.w3.org/1999/xlink" width="80" height="80" viewBox="0 0 80 80">
  <defs>
    <clipPath id="clip-path">
      <rect id="長方形_241" data-name="長方形 241" width="33.6" height="33.6" fill="#fff"/>
    </clipPath>
  </defs>
  <g id="environment_icon_mental" transform="translate(-715 -2430)">
    <circle id="楕円形_18" data-name="楕円形 18" cx="40" cy="40" r="40" transform="translate(715 2430)" fill="#1f2020"/>
    <g id="グループ_745" data-name="グループ 745" transform="translate(738.2 2453)" clip-path="url(#clip-path)">
      <path id="パス_285" data-name="パス 285" d="M24.24,17.374q-3.76-3.442-6.56-6.556T14.88,5a4.9,4.9,0,0,1,1.4-3.565A4.666,4.666,0,0,1,19.76,0a4.743,4.743,0,0,1,2.38.676A7.423,7.423,0,0,1,24.24,2.5,7.423,7.423,0,0,1,26.34.676,4.743,4.743,0,0,1,28.72,0,4.666,4.666,0,0,1,32.2,1.434,4.9,4.9,0,0,1,33.6,5q0,2.7-2.8,5.819t-6.56,6.556m0-3.4q2.64-2.459,4.8-4.876T31.2,5a2.5,2.5,0,0,0-.7-1.823,2.382,2.382,0,0,0-1.78-.717,2.979,2.979,0,0,0-1.34.328,4.052,4.052,0,0,0-1.34,1.229l-1.8,2.254-1.8-2.254A4.052,4.052,0,0,0,21.1,2.786a2.979,2.979,0,0,0-1.34-.328,2.382,2.382,0,0,0-1.78.717A2.5,2.5,0,0,0,17.28,5q0,1.68,2.16,4.1t4.8,4.876m0-5.778h0m-3.2,25.4L8.6,29.953v2.336H0V16.144H12.36l10.2,3.934a4.217,4.217,0,0,1,1.82,1.332,4.132,4.132,0,0,1,.74,2.643h4.56a3.63,3.63,0,0,1,2.8,1.229A4.741,4.741,0,0,1,33.6,28.6v1.065ZM2.4,29.83H6.16V18.6H2.4ZM20.88,31.06l10.24-3.2a2.157,2.157,0,0,0-.6-1.065,1.31,1.31,0,0,0-.84-.287H21.4a13.655,13.655,0,0,1-4.16-.615L14,24.872l.88-2.377,2.92.983a10.794,10.794,0,0,0,1.9.451,23.542,23.542,0,0,0,2.86.123,2.677,2.677,0,0,0-.18-.963,1.179,1.179,0,0,0-.62-.676L11.96,18.6H8.6v8.769Zm1.68-7.007h0" transform="translate(0 0)" fill="#fff"/>
    </g>
  </g>
</svg>
