<svg xmlns="http://www.w3.org/2000/svg" xmlns:xlink="http://www.w3.org/1999/xlink" width="80" height="80" viewBox="0 0 80 80">
  <defs>
    <clipPath id="clip-path">
      <rect id="長方形_226" data-name="長方形 226" width="30.4" height="35.2" fill="#fff"/>
    </clipPath>
  </defs>
  <g id="environment_icon_nursing" transform="translate(-183 -2245)">
    <circle id="楕円形_15" data-name="楕円形 15" cx="40" cy="40" r="40" transform="translate(183 2245)" fill="#1f2020"/>
    <g id="グループ_716" data-name="グループ 716" transform="translate(207.8 2268)">
      <g id="グループ_715" data-name="グループ 715" transform="translate(0 0)" clip-path="url(#clip-path)">
        <path id="パス_261" data-name="パス 261" d="M6.259,6.481a3.151,3.151,0,0,1-2.3-.954A3.107,3.107,0,0,1,3,3.24,3.107,3.107,0,0,1,3.956.954,3.151,3.151,0,0,1,6.259,0a3.151,3.151,0,0,1,2.3.954A3.107,3.107,0,0,1,9.522,3.24a3.107,3.107,0,0,1-.961,2.286,3.151,3.151,0,0,1-2.3.954M25.706,16.557a2.6,2.6,0,0,1-1.9-.777,2.666,2.666,0,0,1,0-3.773,2.712,2.712,0,0,1,3.8,0,2.666,2.666,0,0,1,0,3.773,2.6,2.6,0,0,1-1.9.777M3.129,35.2V22.327H0V11.23A2.56,2.56,0,0,1,.782,9.344a2.6,2.6,0,0,1,1.9-.777h6.8a2.633,2.633,0,0,1,1.408.4,2.7,2.7,0,0,1,1.006,1.11l6.08,12.34,3.264-3.462a1.7,1.7,0,0,1,.648-.466,2.042,2.042,0,0,1,.782-.155h5.767a1.9,1.9,0,0,1,1.386.577,1.873,1.873,0,0,1,.581,1.376v7.368H28.165V35.2H21.906V21.75l-2.638,2.8H16.139L10.282,12.873V35.2Z" transform="translate(0 0)" fill="#fff"/>
      </g>
    </g>
  </g>
</svg>
