<svg xmlns="http://www.w3.org/2000/svg" xmlns:xlink="http://www.w3.org/1999/xlink" width="80" height="80" viewBox="0 0 80 80">
  <defs>
    <clipPath id="clip-path">
      <rect id="長方形_225" data-name="長方形 225" width="30.4" height="32" fill="#fff"/>
    </clipPath>
  </defs>
  <g id="environment_icon_birth" transform="translate(-715 -1927)">
    <circle id="楕円形_11" data-name="楕円形 11" cx="40" cy="40" r="40" transform="translate(715 1927)" fill="#1f2020"/>
    <g id="グループ_714" data-name="グループ 714" transform="translate(739.8 1951)">
      <g id="グループ_713" data-name="グループ 713" clip-path="url(#clip-path)">
        <path id="パス_260" data-name="パス 260" d="M11.24,32a2.254,2.254,0,1,1,1.58-.66,2.155,2.155,0,0,1-1.58.66m16.92,0a2.254,2.254,0,1,1,1.58-.66,2.155,2.155,0,0,1-1.58.66M18.24,9.32l-6.16-7.4A13.338,13.338,0,0,1,15.24.78,14.341,14.341,0,0,1,18.4.4a15.092,15.092,0,0,1,3.96.52,12.2,12.2,0,0,1,3.6,1.64ZM16.72,25.6a7.582,7.582,0,0,1-7.68-7.68V5.84L7.88,4.52a10.7,10.7,0,0,0-1.74-1.7A2.173,2.173,0,0,0,4.92,2.4a2.116,2.116,0,0,0-1.88.96A3.679,3.679,0,0,0,2.4,5.44H0A5.541,5.541,0,0,1,1.44,1.6,4.517,4.517,0,0,1,4.92,0,4.883,4.883,0,0,1,7.1.5,8.741,8.741,0,0,1,9.6,2.8L26.52,23.04a1.592,1.592,0,0,1-1.24,2.56Zm0-2.4h6.72l-12-14.44v9.16a5.129,5.129,0,0,0,5.28,5.28m.72-7.24h0" fill="#fff"/>
      </g>
    </g>
  </g>
</svg>
