<svg xmlns="http://www.w3.org/2000/svg" xmlns:xlink="http://www.w3.org/1999/xlink" width="80" height="80" viewBox="0 0 80 80">
  <defs>
    <clipPath id="clip-path">
      <rect id="長方形_223" data-name="長方形 223" width="35.097" height="27.2" fill="#fff"/>
    </clipPath>
  </defs>
  <g id="environment_icon_mentor" transform="translate(-183 -1332)">
    <circle id="楕円形_4" data-name="楕円形 4" cx="40" cy="40" r="40" transform="translate(183 1332)" fill="#1f2020"/>
    <g id="グループ_710" data-name="グループ 710" transform="translate(205.4 1358)">
      <g id="グループ_709" data-name="グループ 709" transform="translate(0 0)" clip-path="url(#clip-path)">
        <path id="パス_258" data-name="パス 258" d="M26.5,17.52A4.116,4.116,0,0,1,22.374,13.4a4.127,4.127,0,0,1,7.041-2.913,4.119,4.119,0,0,1,0,5.825,3.977,3.977,0,0,1-2.917,1.2M17.9,27.2V24.966a3.739,3.739,0,0,1,.483-1.949,3.212,3.212,0,0,1,1.36-1.248,14.534,14.534,0,0,1,3.29-1.226,15.012,15.012,0,0,1,3.466-.394,15.875,15.875,0,0,1,3.466.372,12.755,12.755,0,0,1,3.29,1.248A2.919,2.919,0,0,1,34.614,23a3.857,3.857,0,0,1,.483,1.971V27.2ZM14.039,13.14A6.419,6.419,0,0,1,9.3,11.3,6.4,6.4,0,0,1,7.458,6.57,6.4,6.4,0,0,1,9.3,1.84,6.419,6.419,0,0,1,14.039,0a6.419,6.419,0,0,1,4.738,1.84,6.4,6.4,0,0,1,1.843,4.73,6.4,6.4,0,0,1-1.843,4.73,6.419,6.419,0,0,1-4.738,1.84M0,27.2V23.083a5.237,5.237,0,0,1,.746-2.738A4.74,4.74,0,0,1,2.983,18.44a33,33,0,0,1,5.637-1.971,22.822,22.822,0,0,1,5.418-.657,21.215,21.215,0,0,1,2.5.131q1.1.131,2.369.394l-2.237,2.234a10.376,10.376,0,0,0-1.228-.11q-.658-.022-1.4-.022a23.371,23.371,0,0,0-4.87.5,22.306,22.306,0,0,0-5.133,1.862,2.449,2.449,0,0,0-1.009.964,2.532,2.532,0,0,0-.395,1.314v1.489H15.267V27.2ZM14.039,10.512A3.823,3.823,0,0,0,17.987,6.57a3.823,3.823,0,0,0-3.948-3.942A3.823,3.823,0,0,0,10.09,6.57a3.823,3.823,0,0,0,3.948,3.942" transform="translate(0 0)" fill="#fff"/>
      </g>
    </g>
  </g>
</svg>
