<svg xmlns="http://www.w3.org/2000/svg" xmlns:xlink="http://www.w3.org/1999/xlink" width="80" height="80" viewBox="0 0 80 80">
  <defs>
    <clipPath id="clip-path">
      <rect id="長方形_239" data-name="長方形 239" width="32" height="36.8" fill="#fff"/>
    </clipPath>
  </defs>
  <g id="environment_icon_maternity" transform="translate(-183 -1927)">
    <circle id="楕円形_12" data-name="楕円形 12" cx="40" cy="40" r="40" transform="translate(183 1927)" fill="#1f2020"/>
    <g id="グループ_742" data-name="グループ 742" transform="translate(207 1948)">
      <g id="グループ_741" data-name="グループ 741" clip-path="url(#clip-path)">
        <path id="パス_283" data-name="パス 283" d="M0,36.8V19.364L2.756,11.3A2.985,2.985,0,0,1,4.467,9.441a3.063,3.063,0,0,1,2.556.022L14.489,12.7h4.178v2.629h-4.8L8.711,13.1,6.222,20.5V36.8ZM8.578,6.4a3.145,3.145,0,0,1-2.289-.942A3.056,3.056,0,0,1,5.333,3.2,3.056,3.056,0,0,1,6.289.942,3.145,3.145,0,0,1,8.578,0a3.145,3.145,0,0,1,2.289.942A3.056,3.056,0,0,1,11.822,3.2a3.056,3.056,0,0,1-.956,2.256A3.145,3.145,0,0,1,8.578,6.4m2.533,22.08H32V31.1H11.111Zm18.222-2.19a2.592,2.592,0,0,1-1.889-.767,2.617,2.617,0,0,1,0-3.724,2.71,2.71,0,0,1,3.778,0,2.617,2.617,0,0,1,0,3.724,2.592,2.592,0,0,1-1.889.767m-12-.438a2.592,2.592,0,0,1-1.889-.767,2.518,2.518,0,0,1-.778-1.862V20.59H11.111V17.962H16a1.306,1.306,0,0,1,.956.372,1.268,1.268,0,0,1,.378.942v2.19h5.333v-3.5h2.667v5.257a2.518,2.518,0,0,1-.778,1.862,2.592,2.592,0,0,1-1.889.767Z" fill="#fff"/>
      </g>
    </g>
  </g>
</svg>
