<svg xmlns="http://www.w3.org/2000/svg" xmlns:xlink="http://www.w3.org/1999/xlink" width="80" height="80" viewBox="0 0 80 80">
  <defs>
    <clipPath id="clip-path">
      <rect id="長方形_236" data-name="長方形 236" width="33.6" height="32" fill="#fff"/>
    </clipPath>
  </defs>
  <g id="environment_icon_welbox" transform="translate(-183 -1637)">
    <circle id="楕円形_8" data-name="楕円形 8" cx="40" cy="40" r="40" transform="translate(183 1637)" fill="#1f2020"/>
    <g id="グループ_736" data-name="グループ 736" transform="translate(206.2 1661)">
      <g id="グループ_735" data-name="グループ 735" clip-path="url(#clip-path)">
        <path id="パス_280" data-name="パス 280" d="M2.52,29.474H31.08V25.389H2.52Zm0-22.737H7.77a3.534,3.534,0,0,1-.336-.947,4.8,4.8,0,0,1-.126-1.032A4.592,4.592,0,0,1,8.694,1.389,4.522,4.522,0,0,1,12.012,0a4.579,4.579,0,0,1,2.394.653,5.026,5.026,0,0,1,1.722,1.663l.714,1.095.672-1.095A5.2,5.2,0,0,1,19.236.632,4.321,4.321,0,0,1,21.5,0a4.657,4.657,0,0,1,3.4,1.368,4.573,4.573,0,0,1,1.386,3.389,4.194,4.194,0,0,1-.105.926,9.225,9.225,0,0,1-.315,1.053H31.08a2.415,2.415,0,0,1,1.764.758A2.427,2.427,0,0,1,33.6,9.263V29.474A2.587,2.587,0,0,1,31.08,32H2.52a2.415,2.415,0,0,1-1.764-.758A2.427,2.427,0,0,1,0,29.474V9.263A2.427,2.427,0,0,1,.756,7.495,2.415,2.415,0,0,1,2.52,6.737m0,14.147H31.08V9.263H20.622l4.2,5.853-2.016,1.516L16.8,8.295l-6.006,8.337L8.778,15.116l4.2-5.853H2.52ZM12.054,6.989a2.143,2.143,0,0,0,1.575-.653,2.153,2.153,0,0,0,.651-1.579,2.153,2.153,0,0,0-.651-1.579,2.227,2.227,0,0,0-3.15,0,2.153,2.153,0,0,0-.651,1.579,2.153,2.153,0,0,0,.651,1.579,2.143,2.143,0,0,0,1.575.653m9.45,0a2.191,2.191,0,0,0,1.617-.653,2.153,2.153,0,0,0,.651-1.579,2.153,2.153,0,0,0-.651-1.579A2.191,2.191,0,0,0,21.5,2.526a2.094,2.094,0,0,0-1.533.653,2.153,2.153,0,0,0-.651,1.579,2.153,2.153,0,0,0,.651,1.579,2.094,2.094,0,0,0,1.533.653" fill="#fff"/>
      </g>
    </g>
  </g>
</svg>
