<svg xmlns="http://www.w3.org/2000/svg" xmlns:xlink="http://www.w3.org/1999/xlink" width="80" height="80" viewBox="0 0 80 80">
  <defs>
    <clipPath id="clip-path">
      <rect id="長方形_234" data-name="長方形 234" width="32" height="32" fill="#fff"/>
    </clipPath>
  </defs>
  <g id="environment_icon__parental" data-name="environment_icon_ parental" transform="translate(-715 -2073)">
    <circle id="楕円形_14" data-name="楕円形 14" cx="40" cy="40" r="40" transform="translate(715 2073)" fill="#1f2020"/>
    <g id="グループ_732" data-name="グループ 732" transform="translate(739 2097)">
      <g id="グループ_731" data-name="グループ 731" clip-path="url(#clip-path)">
        <path id="パス_278" data-name="パス 278" d="M10.96,19.88a2.16,2.16,0,1,1,1.54-3.7,2.16,2.16,0,0,1-1.54,3.7m10.12,0a2.118,2.118,0,1,1,1.54-.62,2.09,2.09,0,0,1-1.54.62M16,29.6a13.121,13.121,0,0,0,9.64-3.96A13.121,13.121,0,0,0,29.6,16a12.919,12.919,0,0,0-.16-2.04,15.755,15.755,0,0,0-.4-1.84,11.051,11.051,0,0,1-1.74.28q-.94.08-1.94.08a17.284,17.284,0,0,1-7.34-1.6,16.562,16.562,0,0,1-5.9-4.56,16.614,16.614,0,0,1-3.9,5.66A18.221,18.221,0,0,1,2.4,15.72V16a13.121,13.121,0,0,0,3.96,9.64A13.121,13.121,0,0,0,16,29.6M16,32a15.578,15.578,0,0,1-6.24-1.26,15.975,15.975,0,0,1-8.5-8.5A15.578,15.578,0,0,1,0,16,15.578,15.578,0,0,1,1.26,9.76a15.975,15.975,0,0,1,8.5-8.5A15.578,15.578,0,0,1,16,0a15.578,15.578,0,0,1,6.24,1.26,15.975,15.975,0,0,1,8.5,8.5A15.578,15.578,0,0,1,32,16a15.578,15.578,0,0,1-1.26,6.24,15.975,15.975,0,0,1-8.5,8.5A15.578,15.578,0,0,1,16,32M12.32,2.92a22.871,22.871,0,0,0,6.5,5.64,14.178,14.178,0,0,0,6.54,1.52q.96,0,1.52-.04a5.9,5.9,0,0,0,1.24-.24,15.232,15.232,0,0,0-4.9-5.32A12.653,12.653,0,0,0,16,2.4a12.438,12.438,0,0,0-2.04.16,14.049,14.049,0,0,0-1.64.36M2.76,12.88A12.994,12.994,0,0,0,7.14,9.62a14.423,14.423,0,0,0,3.5-6.14A12.87,12.87,0,0,0,5.38,7.46a16.636,16.636,0,0,0-2.62,5.42" fill="#fff"/>
      </g>
    </g>
  </g>
</svg>
