<svg xmlns="http://www.w3.org/2000/svg" xmlns:xlink="http://www.w3.org/1999/xlink" width="80" height="80" viewBox="0 0 80 80">
  <defs>
    <clipPath id="clip-path">
      <rect id="長方形_242" data-name="長方形 242" width="26.88" height="33.6" fill="#fff"/>
    </clipPath>
  </defs>
  <g id="environment_icon_condolences" transform="translate(-183 -2430)">
    <circle id="楕円形_17" data-name="楕円形 17" cx="40" cy="40" r="40" transform="translate(183 2430)" fill="#1f2020"/>
    <g id="グループ_748" data-name="グループ 748" transform="translate(209.4 2453)">
      <g id="グループ_747" data-name="グループ 747" clip-path="url(#clip-path)">
        <path id="パス_286" data-name="パス 286" d="M13.44,12.6a6.042,6.042,0,0,1-6.3-6.3A6.042,6.042,0,0,1,13.44,0a6.042,6.042,0,0,1,6.3,6.3,6.042,6.042,0,0,1-6.3,6.3m0-2.52A3.663,3.663,0,0,0,17.22,6.3a3.663,3.663,0,0,0-3.78-3.78A3.663,3.663,0,0,0,9.66,6.3a3.663,3.663,0,0,0,3.78,3.78M0,33.6V22.512a4.623,4.623,0,0,1,.8-2.73A5.124,5.124,0,0,1,2.856,18.06a36.653,36.653,0,0,1,4.809-1.743,20.559,20.559,0,0,1,5.775-.777,20.338,20.338,0,0,1,5.754.777,37.074,37.074,0,0,1,4.788,1.743,5.066,5.066,0,0,1,2.1,1.722,4.623,4.623,0,0,1,.8,2.73V31.08a2.584,2.584,0,0,1-2.52,2.52H9.66a4.2,4.2,0,1,1,0-8.4h4.956l3.024-6.72q-1.092-.21-2.163-.315t-2.037-.1a19.264,19.264,0,0,0-5.4.693,26.44,26.44,0,0,0-4.179,1.575,2.423,2.423,0,0,0-.966.882,2.358,2.358,0,0,0-.378,1.3V33.6Zm9.66-2.52h2.268l1.554-3.36H9.66a1.68,1.68,0,0,0,0,3.36m5.04,0h9.66V22.512a2.266,2.266,0,0,0-.4-1.3,2.576,2.576,0,0,0-.987-.882q-.5-.252-1.218-.546t-1.638-.63Z" fill="#fff"/>
      </g>
    </g>
  </g>
</svg>
