<svg xmlns="http://www.w3.org/2000/svg" xmlns:xlink="http://www.w3.org/1999/xlink" width="80" height="80" viewBox="0 0 80 80">
  <defs>
    <clipPath id="clip-path">
      <rect id="長方形_245" data-name="長方形 245" width="35.2" height="35.2" fill="#fff"/>
    </clipPath>
  </defs>
  <g id="environment_icon_seminar" transform="translate(-715 -1332)">
    <circle id="楕円形_3" data-name="楕円形 3" cx="40" cy="40" r="40" transform="translate(715 1332)" fill="#1f2020"/>
    <g id="グループ_754" data-name="グループ 754" transform="translate(737.4 1354)">
      <g id="グループ_753" data-name="グループ 753" transform="translate(0 0)" clip-path="url(#clip-path)">
        <path id="パス_289" data-name="パス 289" d="M17.6,16.011a4.748,4.748,0,0,1-4.767-4.767A4.748,4.748,0,0,1,17.6,6.476a4.748,4.748,0,0,1,4.767,4.767A4.748,4.748,0,0,1,17.6,16.011m0-2.384a2.374,2.374,0,0,0,2.384-2.384,2.384,2.384,0,1,0-4.072,1.688,2.3,2.3,0,0,0,1.688.7M8.065,25.546V22.526a2.928,2.928,0,0,1,.556-1.788,5.355,5.355,0,0,1,1.828-1.43,14.562,14.562,0,0,1,3.456-1.291,16.571,16.571,0,0,1,7.39,0,14.562,14.562,0,0,1,3.456,1.291,5.355,5.355,0,0,1,1.828,1.43,2.928,2.928,0,0,1,.556,1.788v3.019ZM17.6,19.984a13.255,13.255,0,0,0-3.695.516,13.838,13.838,0,0,0-3.456,1.549v1.112h14.3V22.05A13.838,13.838,0,0,0,21.295,20.5a13.255,13.255,0,0,0-3.695-.516m15.375-8.82a17.031,17.031,0,0,0-8.939-8.979L24.95,0a18.67,18.67,0,0,1,6.118,4.092A19.085,19.085,0,0,1,35.2,10.25Zm-30.75,0L0,10.25A19.049,19.049,0,0,1,10.25,0l.914,2.225a16.1,16.1,0,0,0-8.939,8.939M10.25,35.2a18.67,18.67,0,0,1-6.118-4.092A19.085,19.085,0,0,1,0,24.95L2.225,24A16.931,16.931,0,0,0,5.8,29.38a16.426,16.426,0,0,0,5.4,3.6Zm14.7,0-.914-2.225a16.779,16.779,0,0,0,8.939-8.939l2.225.914a18.67,18.67,0,0,1-4.092,6.118A19.085,19.085,0,0,1,24.95,35.2M17.6,23.162h0Z" transform="translate(0 0)" fill="#fff"/>
      </g>
    </g>
  </g>
</svg>
