<svg xmlns="http://www.w3.org/2000/svg" xmlns:xlink="http://www.w3.org/1999/xlink" width="80" height="80" viewBox="0 0 80 80">
  <defs>
    <clipPath id="clip-path">
      <rect id="長方形_238" data-name="長方形 238" width="32" height="19.2" fill="#fff"/>
    </clipPath>
  </defs>
  <g id="environment_icon_skillup" transform="translate(-715 -1134)">
    <circle id="楕円形_2" data-name="楕円形 2" cx="40" cy="40" r="40" transform="translate(715 1134)" fill="#1f2020"/>
    <g id="グループ_740" data-name="グループ 740" transform="translate(739 1164)">
      <g id="グループ_739" data-name="グループ 739" clip-path="url(#clip-path)">
        <path id="パス_282" data-name="パス 282" d="M1.68,19.2,0,17.52,8.76,8.76a4.245,4.245,0,0,1,3.12-1.28A4.245,4.245,0,0,1,15,8.76l1.84,1.84a1.98,1.98,0,0,0,2.84,0l8.2-8.2H23.2V0H32V8.8H29.6V4.12l-8.24,8.2a4.442,4.442,0,0,1-6.24,0l-1.88-1.88a2.03,2.03,0,0,0-2.8,0Z" fill="#fff"/>
      </g>
    </g>
  </g>
</svg>
